PathFileType	4	(X/Y/Z)	OpenSim_Sub08_EMGStiffKnee_Magnet.trc
DataRate	CameraRate	NumFrames	NumMarkers	Units	OrigDataRate	OrigDataStartFrame	OrigNumFrames
100	100	13	8	m	100	3939	6301
Frame#	Time	torso_imu_offset_imu	pelvis_imu_offset_imu	tibia_r_imu_offset_imu	femur_r_imu_offset_imu	tibia_l_imu_offset_imu	femur_l_imu_offset_imu	toes_r_imu_offset_imu	toes_l_imu_offset_imu
				X1	Y1	Z1	X2	Y2	Z2	X3	Y3	Z3	X4	Y4	Z4	X5	Y5	Z5	X6	Y6	Z6	X7	Y7	Z7	X8		Y8	Z8	

3939	39.38000000	-0.92721111	-0.18597800	0.12742747	-0.60168650	0.25581935	-0.69345568	-0.72709135	-0.40439371	0.04984831	-0.77470964	-0.33518835	0.04414320	-0.02442918	0.79844042	0.24165559	-0.76588818	0.20070821	0.26890319	-0.63059189	-0.17212861	-0.40969498	-0.69512864	0.01772783	0.44899535
3940	39.39000000	-0.93123427	-0.18146702	0.13150152	-0.60695505	0.25709623	-0.69640324	-0.72682096	-0.41217756	0.05428920	-0.77738051	-0.33957704	0.03994828	-0.03651049	0.80515574	0.22633344	-0.77855989	0.18726708	0.26898504	-0.62830117	-0.18039279	-0.41157696	-0.71330150	0.02428806	0.42060977
3941	39.40000000	-0.92459577	-0.17957167	0.13455695	-0.59873412	0.25020266	-0.69509051	-0.71966999	-0.41204096	0.04845919	-0.77661655	-0.34770580	0.04744157	-0.05464515	0.81154617	0.21018774	-0.78100802	0.16492684	0.26681911	-0.62393962	-0.18666753	-0.41343096	-0.73380218	0.02629290	0.40153508
3942	39.41000000	-0.92530555	-0.17998006	0.14452212	-0.60733544	0.24252045	-0.68849695	-0.71199873	-0.41928924	0.03835469	-0.77486611	-0.34915407	0.04961820	-0.07070611	0.81297942	0.19553358	-0.78127709	0.14633164	0.26510868	-0.62183045	-0.19393149	-0.41585733	-0.75378072	0.03347322	0.36273228
3943	39.42000000	-0.92706959	-0.18414730	0.13810954	-0.60488348	0.24199228	-0.69327945	-0.71377755	-0.42939790	0.03918355	-0.77182835	-0.35450384	0.05143876	-0.09065321	0.81141330	0.18672504	-0.79178990	0.13268461	0.26498994	-0.61984330	-0.19190811	-0.42444380	-0.77203567	0.03695163	0.33087762
3944	39.43000000	-0.92700458	-0.18342924	0.14552767	-0.60670270	0.23422304	-0.69012870	-0.70900976	-0.43324944	0.03617908	-0.76398665	-0.36596332	0.04496415	-0.10931098	0.81500675	0.17063926	-0.79032045	0.11079493	0.26315802	-0.61963157	-0.19804648	-0.42992808	-0.79454862	0.03232944	0.28824367
3945	39.44000000	-0.92724810	-0.17965474	0.14913966	-0.60459980	0.23795339	-0.69107372	-0.70730545	-0.43985941	0.02753983	-0.77055399	-0.36139500	0.04547072	-0.13882453	0.80626397	0.16138114	-0.79257629	0.09369429	0.26030201	-0.61502878	-0.20058375	-0.43212393	-0.81358746	0.02477171	0.25153082
3946	39.45000000	-0.92730113	-0.18202278	0.15136343	-0.60408760	0.22505120	-0.69820356	-0.70669042	-0.44767902	0.02430191	-0.76491081	-0.36643339	0.04756873	-0.17070350	0.80617714	0.15991118	-0.79836378	0.07385951	0.25277587	-0.61048787	-0.20972593	-0.44103138	-0.82399700	0.00221507	0.19379207
3947	39.46000000	-0.92702118	-0.18196449	0.15346307	-0.60197620	0.22607645	-0.70397606	-0.69986135	-0.44989498	0.02621355	-0.75979474	-0.37229229	0.04844932	-0.20878803	0.79102130	0.16442386	-0.79712061	0.05179594	0.26196446	-0.60462136	-0.20601692	-0.45129307	-0.83615788	-0.01720683	0.13932987
3948	39.47000000	-0.92517448	-0.18402503	0.15635224	-0.60223680	0.22562103	-0.69936482	-0.69384049	-0.45895165	0.02485776	-0.76316791	-0.37642105	0.05496521	-0.24830320	0.77253662	0.17967177	-0.79689795	0.03112541	0.25708031	-0.60503640	-0.21884545	-0.45656352	-0.83935335	-0.04177385	0.09581791
3949	39.48000000	-0.92676571	-0.18646141	0.16267636	-0.59942513	0.22382584	-0.70489192	-0.69348204	-0.46877427	0.03166318	-0.75519789	-0.38037282	0.05028613	-0.28869224	0.76476941	0.19159635	-0.80079586	0.01975566	0.25718191	-0.60901736	-0.22445478	-0.46149857	-0.84166540	-0.07319345	0.03452888
3950	39.49000000	-0.92251660	-0.19024830	0.16551117	-0.59837760	0.22375914	-0.71137830	-0.68869197	-0.47047014	0.02937923	-0.76112807	-0.38274803	0.05323651	-0.33268413	0.73502026	0.20807185	-0.80224037	-0.00210445	0.25359160	-0.61049511	-0.23317938	-0.47364969	-0.82833436	-0.10999357	-0.01800801
3951	39.50000000	-0.92493061	-0.18804016	0.17394125	-0.60431469	0.22148004	-0.71348082	-0.68273974	-0.47765073	0.03436242	-0.75186991	-0.38908772	0.05513284	-0.37423220	0.70882745	0.22895245	-0.80345135	-0.01708143	0.25684255	-0.60791150	-0.24054458	-0.47742271	-0.81848655	-0.13722400	-0.06506666
